<svg xmlns="http://www.w3.org/2000/svg" xml:space="preserve" width="1300px" height="520px" fill-rule="evenodd" clip-rule="evenodd" viewBox="0 0 1300 520"
 xmlns:xlink="http://www.w3.org/1999/xlink">
    <path fill="#231F20" fill-rule="nonzero" d="M1223.45 49.57c1.27,0 2.33,0.42 3.19,1.26 0.86,0.84 1.28,1.94 1.28,3.26 0,1.26 -0.42,2.31 -1.28,3.15 -0.86,0.81 -1.92,1.23 -3.19,1.23 -1.3,0 -2.4,-0.42 -3.28,-1.23 -0.87,-0.84 -1.3,-1.89 -1.3,-3.15 0,-1.29 0.45,-2.37 1.34,-3.24 0.89,-0.85 1.98,-1.28 3.24,-1.28z"/>
    <polygon fill="#231F20" fill-rule="nonzero" points="1160.47,57.07 1160.47,3.17 1198.14,3.17 1198.14,9.37 1166.42,9.37 1166.42,25.17 1185.61,25.17 1185.61,31.37 1166.42,31.37 1166.42,50.87 1200.1,50.87 1200.1,57.07 "/>
    <path fill="#231F20" fill-rule="nonzero" d="M1088.19 57.07l0 -53.9 27.48 0c4.68,0 8.34,1.33 11,3.98 2.65,2.65 3.99,6.32 3.99,11 0,3.9 -1.04,7.24 -3.11,10.02 -2.09,2.78 -4.83,4.51 -8.24,5.2l11.97 23.7 -6.58 0 -11.98 -23.6 -18.58 0 0 23.6 -5.95 0zm5.95 -29.9l21.14 0c3.01,0 5.29,-0.75 6.83,-2.25 1.56,-1.48 2.33,-3.68 2.33,-6.58 0,-2.82 -0.77,-5.04 -2.33,-6.6 -1.54,-1.59 -3.71,-2.37 -6.53,-2.37l-21.44 0 0 17.8z"/>
    <path fill="#231F20" fill-rule="nonzero" d="M1030.15 58.47c-8.08,0 -14.75,-2.67 -20,-7.98 -5.24,-5.32 -7.88,-12.07 -7.88,-20.25 0,-8.21 2.64,-14.97 7.92,-20.29 5.26,-5.32 11.91,-7.98 19.96,-7.98 8.06,0 14.74,2.66 20.06,8.02 5.3,5.33 7.94,12.08 7.94,20.25 0,8.18 -2.64,14.93 -7.93,20.25 -5.28,5.31 -11.98,7.98 -20.07,7.98zm0.01 -6.3c6.05,0 11.07,-2.07 15.05,-6.2 3.96,-4.14 5.95,-9.39 5.95,-15.73 0,-6.37 -1.99,-11.64 -5.93,-15.77 -3.95,-4.14 -8.98,-6.2 -15.07,-6.2 -6.04,0 -11.06,2.08 -15.04,6.23 -3.97,4.15 -5.95,9.4 -5.95,15.74 0,6.34 1.98,11.59 5.95,15.73 3.98,4.13 9,6.2 15.04,6.2z"/>
    <path fill="#231F20" fill-rule="nonzero" d="M917.23 3.17c7.53,0 13.61,2.5 18.21,7.52 4.61,5.01 6.92,11.53 6.92,19.58 0,8.1 -2.27,14.6 -6.8,19.48 -4.55,4.89 -10.65,7.32 -18.33,7.32l-20.54 0 0 -53.9 20.54 0zm0 6.2l-14.59 0 0 41.5 14.59 0c5.89,0 10.54,-1.87 13.92,-5.59 3.39,-3.73 5.08,-8.76 5.08,-15.11 0,-6.25 -1.72,-11.29 -5.17,-15.08 -3.44,-3.82 -8.06,-5.72 -13.83,-5.72z"/>
    <polygon fill="#231F20" fill-rule="nonzero" points="805.56,57.07 805.56,3.17 809.44,3.17 847.96,43.45 847.96,3.17 855.34,3.17 855.34,57.07 851.57,57.07 812.94,16.78 812.94,57.07 "/>
    <path fill="#231F20" fill-rule="nonzero" d="M722.46 57.07l23.47 -53.9 4.94 0 23.74 53.9 -6.47 0 -6.5 -14.5 -26.46 0 -6.34 14.5 -6.38 0zm15.44 -20.8l21.09 0 -10.59 -23.87 -10.5 23.87z"/>
    <polygon fill="#231F20" fill-rule="nonzero" points="649.74,57.07 649.74,3.17 655.69,3.17 655.69,50.87 686.97,50.87 686.97,57.07 "/>
    <polygon fill="#231F20" fill-rule="nonzero" points="586.73,57.07 586.73,9.37 566.56,9.37 566.56,3.17 612.85,3.17 612.85,9.37 592.68,9.37 592.68,57.07 "/>
    <path fill="#231F20" fill-rule="nonzero" d="M488.38 57.07l0 -53.9 27.48 0c4.68,0 8.34,1.33 11.01,3.98 2.65,2.65 3.98,6.32 3.98,11 0,3.9 -1.04,7.24 -3.11,10.02 -2.09,2.78 -4.83,4.51 -8.23,5.2l11.96 23.7 -6.57 0 -11.98 -23.6 -18.59 0 0 23.6 -5.95 0zm5.95 -29.9l21.15 0c3,0 5.28,-0.75 6.83,-2.25 1.55,-1.48 2.32,-3.68 2.32,-6.58 0,-2.82 -0.77,-5.04 -2.32,-6.6 -1.55,-1.59 -3.72,-2.37 -6.54,-2.37l-21.44 0 0 17.8z"/>
    <path fill="#231F20" fill-rule="nonzero" d="M426.06 58.47c-7.18,0 -13.11,-2.67 -17.77,-7.98 -4.67,-5.32 -7.01,-12.07 -7.01,-20.25 0,-8.21 2.34,-14.97 7.04,-20.29 4.68,-5.32 10.59,-7.98 17.74,-7.98 7.17,0 13.1,2.66 17.83,8.02 4.71,5.33 7.06,12.08 7.06,20.25 0,8.18 -2.35,14.93 -7.05,20.25 -4.69,5.31 -10.65,7.98 -17.84,7.98zm0.01 -6.3c5.38,0 9.83,-2.07 13.37,-6.2 3.53,-4.14 5.29,-9.39 5.29,-15.73 0,-6.37 -1.76,-11.64 -5.27,-15.77 -3.51,-4.14 -7.98,-6.2 -13.39,-6.2 -5.37,0 -9.83,2.08 -13.37,6.23 -3.52,4.15 -5.29,9.4 -5.29,15.74 0,6.34 1.77,11.59 5.29,15.73 3.54,4.13 8,6.2 13.37,6.2z"/>
    <path fill="#231F20" fill-rule="nonzero" d="M323.19 57.07l0 -53.9 27.48 0c4.65,0 8.31,1.3 10.97,3.9 2.68,2.6 4.02,6.17 4.02,10.68 0,4.69 -1.29,8.48 -3.88,11.37 -2.58,2.9 -6.03,4.35 -10.33,4.35l-22.31 0 0 23.6 -5.95 0zm5.95 -29.9l21.14 0c3.01,0 5.29,-0.75 6.83,-2.25 1.56,-1.48 2.33,-3.68 2.33,-6.58 0,-2.82 -0.77,-5.04 -2.33,-6.6 -1.54,-1.59 -3.72,-2.37 -6.53,-2.37l-21.44 0 0 17.8z"/>
   <rect fill="#231F20" x="215.16" y="325.56" width="1071.88" height="17.19"/>
   <polygon fill="#231F20" points="9.64,1.99 291.32,1.99 291.32,58.57 178.13,58.47 177.46,337.47 124.72,337.47 125.27,58.37 9.64,58.18 "/>
   <path fill="#231F20" d="M213.75 293.75l43.55 -0.34 25.1 -52.42 81.83 0.74 24.61 51.99 47.86 -0.07 -92.96 -208.49 -37.51 0 -92.48 208.59zm111.08 -148.35l29.5 64.94 -61.63 0 32.13 -64.94z"/>
   <polygon fill="#231F20" points="445.39,293.38 486.21,293.39 486.6,163.31 609.26,293.4 644.26,293.41 644.26,84.81 601.63,84.81 601.67,210.44 487.08,84.79 445.84,84.79 "/>
   <polygon fill="#231F20" points="669.19,293.38 710.01,293.39 710.4,163.31 833.06,293.4 868.06,293.41 868.06,84.81 825.43,84.81 825.47,210.44 710.88,84.79 669.64,84.79 "/>
   <polygon fill="#231F20" points="890.5,83.8 1069.65,83.41 1069.65,124.14 935.26,124.09 935.83,166.78 1026.82,167.04 1027.16,205.82 934.85,205.22 934.87,254.78 1072.63,254.9 1072.63,293.37 890.5,293.37 "/>
   <path fill="#231F20" d="M1091.98 83.47l128.22 0c86.99,0.51 81.51,124.9 8.15,124.52l56.99 86.03 -47.67 -0.3 -54.41 -82.63 -47.05 -0.08 0 83.01 -45.41 0 1.18 -210.55zm41.98 38.88l79.5 0c19.17,0.65 27.17,11.19 27.34,25.39 0.16,13.69 -9.9,26.63 -25.39,26.76l-81.45 0 0 -52.15z"/>
   <path fill="#231F20" d="M307.98 437.1c3.42,-61.11 92.73,-83.62 139.99,-44.62l-11.13 26.34c-45.77,-32.68 -99.46,-12.66 -100.14,28.47 -0.66,40.09 56.64,50.3 92.16,32.7l0.09 -17.02 -43.67 -0.34 0.4 -24.05 66.79 -0.4 0 59.47c-29.14,17.58 -60.94,19.03 -92.19,14.16 -33.81,-5.26 -54.62,-33.18 -52.3,-74.71z"/>
   <path fill="#231F20" d="M571.67 370.45c43.38,0 78.54,32.96 78.54,73.61 0,40.65 -35.16,73.61 -78.54,73.61 -43.37,0 -78.53,-32.96 -78.53,-73.61 0,-40.65 35.16,-73.61 78.53,-73.61zm0 29.15c26.2,0 47.44,19.9 47.44,44.46 0,24.56 -21.24,44.46 -47.44,44.46 -26.2,0 -47.44,-19.9 -47.44,-44.46 0,-24.56 21.24,-44.46 47.44,-44.46zm199.63 -29.08c43.38,0 78.54,32.95 78.54,73.61 0,40.65 -35.16,73.61 -78.54,73.61 -43.37,0 -78.53,-32.96 -78.53,-73.61 0,-40.66 35.16,-73.61 78.53,-73.61zm0 29.14c26.2,0 47.44,19.91 47.44,44.47 0,24.55 -21.24,44.46 -47.44,44.46 -26.2,0 -47.44,-19.91 -47.44,-44.46 0,-24.56 21.24,-44.47 47.44,-44.47z"/>
   <path fill="#231F20" fill-rule="nonzero" d="M973.7 376.55c19.01,0.2 36.27,5.33 47.88,17.98 11.61,12.64 19,30.05 19,50.35 0,20.42 -6.88,38.78 -18.31,51.07 -11.46,12.32 -29.19,16.71 -48.57,16.5l-74.44 -0.78 0 -135.9 74.44 0.78zm0 26.18l-44.98 -0.59 0 85.1 44.98 0.59c49.34,0.65 50.74,-84.43 0,-85.1z"/>
   <path fill="#231F20" fill-rule="nonzero" d="M1083.52 496.88l7.67 -22.89c8.06,5.85 13.96,8.09 25.58,11.5 10.79,3.17 20.92,5.1 30.7,5.1 11.72,0 21.57,-1.82 28.38,-7.15 10.79,-8.43 7.47,-17.29 1.87,-20.5 -6.51,-3.74 -16.92,-4.6 -31.22,-4.58 -23.96,0.04 -42.21,-3.65 -50.52,-9.77 -10.98,-8.09 -13.93,-22.34 -13.3,-34.41 0.59,-11.3 7.43,-20.69 17.25,-27.57 9.83,-6.89 23.12,-11.47 39.68,-11.47 11.3,0 23.11,0.62 33.88,4.39 10.45,3.65 22.81,10.32 32.69,16.58l-11.91 17.03c-9.43,-4.64 -16.83,-7.86 -26.29,-10.88 -9.46,-3.02 -18.8,-3.54 -27.42,-3.54 -9.99,0 -17.68,2.42 -24.07,5.21 -13.78,6.01 -15.92,18.7 -0.53,23.47 6.09,1.9 15.34,2.12 30.43,2.12 20.97,0 38.89,5.09 49.55,12.18 10.67,7.1 14.47,16.44 14.47,30.42 0,12.4 -5.41,22.7 -16.24,30.95 -10.83,8.2 -24.86,12.3 -42.1,12.3 -12.77,0 -25.39,-1.83 -38,-5.46 -12.56,-3.62 -20.1,-6.35 -30.55,-13.03z"/>
</svg>
