<svg xmlns="http://www.w3.org/2000/svg" width="89" height="89" viewBox="0 0 89 89"><g><g><path fill="#fff" d="M88.99 44.499c0 24.57-19.918 44.491-44.491 44.491C19.925 88.99.007 69.072.007 44.5.007 19.925 19.925.007 44.499.007 69.072.007 88.99 19.928 88.99 44.5zm-5.56 0c0-21.5-17.431-38.93-38.931-38.93-21.501 0-38.93 17.43-38.93 38.93s17.429 38.93 38.93 38.93c21.5 0 38.93-17.43 38.93-38.93zm-19.467 0a2.782 2.782 0 0 1-2.78 2.78H47.279v13.904a2.781 2.781 0 1 1-5.56 0V47.28H27.813a2.782 2.782 0 0 1-2.78-2.781 2.782 2.782 0 0 1 2.78-2.781h13.904V27.815a2.782 2.782 0 0 1 5.561 0v13.903h13.904a2.782 2.782 0 0 1 2.78 2.78z"/></g></g></svg>