<svg xmlns="http://www.w3.org/2000/svg" xml:space="preserve" width="225px" height="225px" fill-rule="evenodd" clip-rule="evenodd" viewBox="0 0 225 225"
 xmlns:xlink="http://www.w3.org/1999/xlink">
	<path fill="#383838" d="M45.4 132.92c24.8,0 44.9,19.94 44.9,44.54 0,24.6 -20.1,44.54 -44.9,44.54 -24.8,0 -44.9,-19.94 -44.9,-44.54 0,-24.6 20.1,-44.54 44.9,-44.54zm0.62 17.97c13.4,0 24.26,11.89 24.26,26.57 0,14.67 -10.86,26.57 -24.26,26.57 -13.41,0 -24.27,-11.9 -24.27,-26.57 0,-14.68 10.86,-26.57 24.27,-26.57z"/>
	<path fill="#383838" d="M178.48 133.3c24.8,0 44.91,19.94 44.91,44.54 0,24.6 -20.11,44.54 -44.91,44.54 -24.8,0 -44.9,-19.94 -44.9,-44.54 0,-24.6 20.1,-44.54 44.9,-44.54zm0.62 17.97c13.4,0 24.27,11.9 24.27,26.57 0,14.68 -10.87,26.57 -24.27,26.57 -13.41,0 -24.27,-11.89 -24.27,-26.57 0,-14.67 10.86,-26.57 24.27,-26.57z"/>
	<path fill="#383838" d="M62.54 69.78l-0.16 -23.22 20.48 -0.02 -0.23 30.81c-4.43,8.76 -20.68,14.95 -34.62,14.95 -24.8,0 -44.9,-19.94 -44.9,-44.54 0,-24.6 20.1,-44.54 44.9,-44.54 12.47,0 23.76,5.04 31.89,13.18l-10.59 14.64c-5.59,-5.13 -10.11,-9.36 -20.68,-9.17 -13.4,0.25 -24.27,11.21 -24.27,25.89 0,14.67 10.82,26.28 24.22,26.06 7.34,-0.12 11.59,-2.06 13.96,-4.04z"/>
</svg>
