<?xml version="1.0" standalone="no"?>
<!DOCTYPE svg PUBLIC "-//W3C//DTD SVG 20010904//EN"
 "http://www.w3.org/TR/2001/REC-SVG-20010904/DTD/svg10.dtd">
<svg version="1.0" xmlns="http://www.w3.org/2000/svg"
 width="700.000000pt" height="700.000000pt" viewBox="0 0 700.000000 700.000000"
 preserveAspectRatio="xMidYMid meet">
<metadata>
Created by potrace 1.11, written by Peter Selinger 2001-2013
</metadata>
<g transform="translate(0.000000,700.000000) scale(0.100000,-0.100000)"
fill="#000000" stroke="none">
<path d="M3239 6996 c-2 -2 -44 -7 -93 -11 -50 -4 -97 -8 -105 -10 -17 -3
-113 -16 -146 -20 -93 -11 -339 -71 -491 -119 -633 -201 -1215 -601 -1640
-1126 -101 -125 -270 -369 -297 -430 -4 -8 -17 -31 -29 -50 -39 -65 -138 -268
-184 -381 -42 -102 -118 -325 -128 -374 -3 -11 -16 -65 -30 -120 -26 -107 -27
-112 -50 -250 -35 -212 -41 -303 -41 -575 1 -240 3 -279 31 -480 35 -261 133
-623 222 -822 11 -24 34 -77 52 -118 100 -229 273 -508 464 -745 89 -111 329
-356 448 -457 265 -227 587 -423 933 -568 162 -69 479 -162 630 -186 17 -3 46
-9 65 -14 19 -5 59 -12 89 -15 30 -4 61 -8 70 -10 9 -2 48 -6 86 -10 39 -4 84
-8 100 -10 17 -2 125 -4 240 -5 195 -1 277 3 380 15 22 3 60 7 85 10 25 3 97
14 160 26 800 141 1525 561 2049 1189 53 63 107 131 121 150 13 19 27 37 30
40 3 3 28 39 56 80 274 403 459 858 543 1335 23 128 31 196 46 365 6 67 6 428
1 490 -15 151 -18 187 -21 201 -2 9 -6 40 -10 69 -4 29 -9 62 -11 74 -2 12 -7
35 -10 51 -50 284 -168 634 -304 906 -119 236 -317 532 -472 706 -104 116
-187 201 -323 328 -49 47 -227 186 -320 252 -456 322 -1047 547 -1570 598 -38
4 -79 9 -90 12 -24 5 -531 14 -536 9z m317 -291 c78 -18 169 -63 239 -119 57
-46 155 -145 194 -196 14 -19 29 -37 32 -40 23 -18 142 -219 204 -345 92 -188
226 -550 251 -680 l5 -30 -93 -27 c-51 -16 -136 -37 -188 -49 -98 -21 -111
-24 -170 -33 -19 -3 -46 -8 -60 -10 -188 -35 -676 -42 -850 -12 -14 3 -45 7
-70 10 -103 13 -298 53 -375 76 -164 48 -235 73 -235 79 0 18 68 241 90 296 5
11 25 65 45 120 81 216 220 479 330 620 105 137 255 266 361 312 97 41 193 51
290 28z m-866 -156 c-179 -232 -325 -527 -453 -914 -31 -93 -57 -178 -59 -187
-3 -15 -21 -8 -118 41 -131 66 -239 130 -355 209 -92 64 -315 241 -315 250 0
17 264 214 400 298 269 168 673 337 910 381 13 2 27 6 29 9 2 2 10 4 18 4 7 0
-18 -41 -57 -91z m1555 71 c417 -102 850 -319 1194 -599 52 -42 103 -83 113
-92 19 -15 18 -17 -39 -65 -84 -73 -217 -169 -341 -247 -130 -82 -411 -222
-422 -211 -4 5 -15 38 -25 73 -23 86 -105 326 -144 426 -91 228 -257 524 -374
667 -52 63 -55 72 -29 65 9 -3 40 -10 67 -17z m-3039 -887 c219 -198 517 -397
792 -528 56 -27 102 -55 102 -61 0 -7 -7 -41 -15 -76 -14 -64 -69 -376 -80
-458 -3 -25 -8 -56 -10 -70 -2 -14 -6 -52 -10 -85 -3 -33 -8 -73 -10 -90 -2
-16 -6 -66 -10 -110 -4 -44 -8 -96 -10 -115 -3 -36 -16 -281 -20 -385 -1 -33
-3 -62 -4 -65 -2 -10 -1636 -6 -1643 4 -3 5 -5 19 -3 30 2 12 6 62 10 111 3
50 8 97 10 105 2 8 6 37 10 64 5 41 22 135 39 221 27 133 99 364 162 517 109
267 254 518 431 745 84 108 221 263 232 263 4 0 16 -8 27 -17z m4623 -80 c83
-95 90 -103 176 -218 205 -275 354 -560 459 -878 72 -216 101 -334 126 -502 7
-44 13 -87 15 -95 4 -23 15 -127 20 -205 l5 -70 -819 0 c-451 0 -822 3 -825 6
-3 3 -8 64 -11 135 -5 122 -9 202 -20 354 -7 92 -30 310 -40 370 -2 14 -7 52
-11 85 -5 33 -9 62 -9 65 -1 3 -5 28 -9 55 -4 28 -14 84 -21 125 -8 41 -17 87
-19 103 -3 15 -7 35 -10 45 -3 9 -7 34 -10 55 -6 38 -5 39 36 55 78 30 347
171 448 234 137 86 301 204 385 276 39 33 73 61 76 61 4 1 30 -25 58 -56z
m-3209 -678 c166 -47 393 -86 590 -102 123 -10 468 -10 594 0 192 16 478 69
655 123 94 29 95 29 107 -45 4 -25 8 -50 10 -56 5 -20 43 -241 48 -280 31
-233 49 -412 61 -610 12 -218 15 -315 7 -316 -17 -4 -2458 -5 -2468 -2 -6 2
-9 18 -8 36 1 18 5 102 8 187 4 85 8 171 11 190 2 19 6 73 10 120 3 47 8 99
10 115 3 17 7 50 10 75 15 137 24 206 30 240 3 14 7 39 9 55 13 80 18 108 37
205 11 58 22 112 25 121 4 15 13 14 87 -8 45 -14 120 -35 167 -48z m-693
-1579 c4 -4 8 -33 9 -64 1 -52 11 -246 19 -382 2 -30 6 -77 9 -105 3 -27 8
-79 11 -115 3 -36 8 -76 10 -90 2 -14 7 -47 10 -75 12 -108 16 -135 41 -280
24 -146 50 -284 60 -316 3 -11 -41 -38 -178 -106 -101 -51 -205 -106 -233
-124 -27 -17 -81 -52 -120 -77 -88 -56 -232 -163 -326 -242 -39 -33 -75 -60
-79 -60 -7 0 -46 41 -121 126 -203 232 -395 548 -524 858 -87 211 -175 530
-199 726 -15 113 -27 229 -29 277 -3 51 -3 52 27 55 66 6 1607 1 1613 -6z
m2754 5 c15 -1 16 -13 14 -93 -5 -139 -16 -346 -20 -371 -2 -12 -6 -62 -10
-111 -4 -50 -8 -97 -10 -105 -2 -13 -13 -99 -20 -166 -9 -76 -49 -320 -65
-388 -4 -20 -8 -38 -8 -40 0 -1 -3 -19 -7 -40 -6 -30 -11 -37 -24 -32 -64 25
-320 91 -431 111 -74 13 -140 24 -185 30 -27 3 -61 8 -75 10 -176 23 -703 23
-772 -1 -7 -2 -38 -7 -68 -10 -75 -7 -274 -43 -335 -60 -27 -8 -61 -16 -75
-19 -14 -2 -70 -18 -125 -35 -55 -16 -100 -29 -101 -28 -2 3 -41 216 -58 317
-8 47 -20 128 -26 180 -6 52 -13 106 -15 120 -2 14 -6 54 -10 90 -3 36 -8 81
-10 100 -2 19 -7 73 -10 120 -23 368 -23 412 -2 419 12 5 2364 6 2448 2z
m1932 0 c16 -1 17 -8 12 -68 -7 -97 -15 -174 -21 -203 -2 -14 -6 -45 -9 -70
-9 -71 -14 -96 -50 -250 -124 -533 -385 -1020 -770 -1436 l-20 -22 -70 60
c-102 86 -299 229 -423 305 -97 60 -359 197 -425 222 -15 6 -25 16 -22 23 5
15 6 18 39 193 35 185 67 396 80 538 4 31 8 81 11 110 11 107 14 145 20 252 5
93 12 241 14 322 1 12 8 23 18 25 14 2 1560 2 1616 -1z m-2933 -1466 c107 -7
170 -14 240 -25 30 -5 71 -12 90 -15 93 -14 200 -40 347 -82 142 -42 133 -15
73 -208 -191 -619 -476 -1053 -782 -1193 -168 -77 -356 -46 -528 87 -258 199
-517 668 -668 1207 l-20 71 107 31 c174 51 324 85 421 97 25 3 74 10 110 15
36 6 119 13 185 16 66 4 121 7 122 9 5 3 214 -3 303 -10z m-1490 -337 c65
-224 157 -462 252 -653 80 -162 90 -180 171 -299 61 -90 70 -103 121 -162 32
-38 27 -40 -54 -19 -406 102 -779 280 -1117 532 -62 46 -118 89 -125 96 -7 7
-27 24 -45 38 l-32 27 87 69 c177 141 296 223 463 316 75 42 241 125 251 126
4 1 17 -32 28 -71z m2695 6 c214 -108 363 -204 547 -351 l118 -94 -45 -39
c-296 -256 -686 -474 -1060 -593 -141 -45 -211 -65 -254 -74 -33 -6 -34 -5
-20 13 8 11 40 54 72 97 107 143 227 356 302 537 15 36 33 79 41 95 18 39 139
400 149 443 3 17 10 32 13 32 4 0 66 -30 137 -66z"/>
</g>
</svg>
